<?xml version="1.0" encoding="iso-8859-1"?>
<!-- Generator: Adobe Illustrator 19.0.0, SVG Export Plug-In . SVG Version: 6.00 Build 0)  -->
<svg version="1.1" id="Capa_1" xmlns="http://www.w3.org/2000/svg" xmlns:xlink="http://www.w3.org/1999/xlink" x="0px" y="0px"
	 viewBox="0 0 512.184 512.184" style="enable-background:new 0 0 512.184 512.184;" xml:space="preserve">
<path style="fill:#6B6B6B;" d="M0.024,355.244l0.16-324c0-5.6,4.808-10.4,10.408-10.392l491.2,0.24c5.6,0,10.4,4.808,10.392,10.408
	l-0.16,324L0.024,355.244z"/>
<path d="M512.024,355.492l-0.024,41.6c0,5.6-4.808,10.4-10.408,10.392l-491.2-0.24c-5.6,0-10.4-4.808-10.392-10.408l0.024-41.6
	L512.024,355.492z"/>
<rect x="146.368" y="480.932" style="fill:#333333;" width="219.2" height="10.4"/>
<polygon style="fill:#6B6B6B;" points="328.768,481.004 183.168,480.932 193.6,407.332 318.4,407.396 "/>
<rect x="20.912" y="41.764" width="470.4" height="292.8"/>
<polygon style="fill:#333333;" points="318.4,407.396 193.6,407.332 187.776,448.412 320.264,420.62 "/>
<polygon style="fill:#FFFFFF;" points="127.528,269.14 203.84,180.604 280.152,269.14 "/>
<polygon style="fill:#FF0000;" points="184.784,269.14 288.096,149.276 391.408,269.14 "/>
<g>
	<circle style="fill:#999999;" cx="233.056" cy="123.892" r="25.384"/>
	<polygon style="fill:#999999;" points="54.944,113.788 50.944,113.788 50.944,72.084 92.648,72.084 92.648,76.084 54.944,76.084 	
		"/>
	<polygon style="fill:#999999;" points="461.248,113.788 457.248,113.788 457.248,76.084 419.544,76.084 419.544,72.084 
		461.248,72.084 	"/>
	<polygon style="fill:#999999;" points="92.648,306.324 50.944,306.324 50.944,264.628 54.944,264.628 54.944,302.324 
		92.648,302.324 	"/>
	<polygon style="fill:#999999;" points="461.248,306.324 419.544,306.324 419.544,302.324 457.248,302.324 457.248,264.628 
		461.248,264.628 	"/>
</g>
<g>
</g>
<g>
</g>
<g>
</g>
<g>
</g>
<g>
</g>
<g>
</g>
<g>
</g>
<g>
</g>
<g>
</g>
<g>
</g>
<g>
</g>
<g>
</g>
<g>
</g>
<g>
</g>
<g>
</g>
</svg>
