<svg id="Layer_1" enable-background="new 0 0 512 512" height="512" viewBox="0 0 512 512" width="512" xmlns="http://www.w3.org/2000/svg"><g><path d="m286.176 141.944v6.767c0 3.313 2.687 6 6 6s6-2.687 6-6v-14.035l3.54-2.144c7.617-4.614 10.052-14.529 5.439-22.146-2.119-3.498-5.36-5.887-8.979-7.018v-51.894h72.507l-26.204 21.443h66.859l-14.611-21.443 14.611-21.443h-40.655v-21.443h-72.507v-1.801c0-3.313-2.687-6-6-6s-6 2.687-6 6v1.801h-1.949v42.886h1.949v52.845c-.393.196-.785.397-1.167.629l-33.469 20.271v26.143l13.62 3.312z"/><path d="m168.32 392.598 7.753 111.891c.293 4.229 3.81 7.511 8.049 7.511 4.266 0 7.796-3.322 8.054-7.58l6.463-106.59 25.11-26.316h-48.079z"/><path d="m319.289 410.221 9.001 94.475c.395 4.141 3.872 7.303 8.032 7.303h.336c4.208 0 7.709-3.233 8.043-7.427l12.645-158.64c-9.801 8.724-21.303 15.576-33.942 19.982"/><path d="m442.117 189.161c-11.456-23.288-35.482-48.787-54.619-66.329-5.048-4.627-11.72-7.266-18.634-7.266v-18.181c0-3.885-5.13-5.287-7.118-1.969l-12.069 20.15-118.751 213.449c-8.577 14.827-27.726 19.729-42.409 10.689-14.152-8.713-18.396-27.397-10.075-41.783l36.679-63.405-4.747-4.78 15.498 8.463-38.096 65.854c-5.352 9.25-2.19 21.087 7.06 26.438 9.25 5.352 21.088 2.189 26.438-7.06l48.026-83.02c3.34-5.774 3.518-12.959.214-19.006-1.836-3.36-4.71-6.039-8.071-7.875l-17.22-9.404-4.684-1.139-29.923-7.276-5.349-1.301c-7.972-1.938-13.4-8.924-13.74-16.729l-1.722-40.05 11.691 37.167c1.695 5.388 6.084 9.496 11.572 10.83l55.528 13.501c1.28.311 2.561.46 3.822.46 7.339 0 13.996-5.046 15.709-12.543 1.98-8.666-3.699-17.258-12.337-19.358l-46.26-11.248-9.726-30.919 12.822 20.995 7.914 1.924v-33.385c0-18.284-14.791-33.309-33.309-33.309h-21.319c-18.25 0-33.309 14.782-33.309 33.309v74.124c0 16.779 11.057 31.463 27.054 36.164-2.125.323-19.148-2.292-35.232 10.904-6.37.418-13.302.657-19.737.736-.688.214-16.049-1.346-28.911 11.695-14.251 14.534-14.067 26.022-25.955 130.401 29.255 0 51.765-25.581 48.414-54.383-4.064-34.929-11.036-55.147-2.936-61.823 3.618-2.202 4.206-2.788 13.339-2.565-3.202 11.281-1.255 12.966-1.837 89.072l-15.063 43.214 7.753 111.891c.293 4.229 3.81 7.511 8.049 7.511 4.266 0 7.796-3.322 8.054-7.58l6.463-106.59 36.56-38.316h94.34l13.832 145.183c.395 4.141 3.872 7.303 8.032 7.303h.387c4.186 0 7.677-3.202 8.038-7.372l12.875-148.648c37.078-10.777 64.179-44.999 64.179-85.553 0-35.304 0-46.987 0-65.52l20.293.383 13.358 8.131c.001.001.002.001.003.002 7.391 4.498 17.147 2.518 22.138-4.741l6.27-9.12c2.122-3.082 2.397-7.058.754-10.397zm-63.468-36.198c-2.041 0-3.696-1.655-3.696-3.696s1.655-3.696 3.696-3.696 3.696 1.655 3.696 3.696-1.655 3.696-3.696 3.696z"/><path d="m193.045 71.258c19.395 1.377 36.698-13.177 38.109-33.058 1.395-19.652-13.406-36.714-33.058-38.109-19.652-1.395-36.714 13.406-38.109 33.058-1.41 19.879 13.668 36.732 33.058 38.109z"/></g></svg>