<svg id="_x33_0" enable-background="new 0 0 64 64" height="512" viewBox="0 0 64 64" width="512" xmlns="http://www.w3.org/2000/svg"><g><g><g><path d="m62 47v2c0 .55-.45 1-1 1h-1-4-4-4-4v-4h14 3c.55 0 1 .45 1 1z" fill="#ccd1d9"/></g><g><path d="m20 46v4h-4-4-4-4-1c-.55 0-1-.45-1-1v-2c0-.55.45-1 1-1h3z" fill="#ccd1d9"/></g><g><path d="m4 50h16v12h-16z" fill="#e6e9ed"/></g><g><path d="m6 32h14v14h-14z" fill="#e6e9ed"/></g><g><path d="m44 32h14v14h-14z" fill="#e6e9ed"/></g><g><path d="m44 50h16v12h-16z" fill="#e6e9ed"/></g><g><path d="m58 36v6h-3c-.55 0-1-.45-1-1v-4c0-.55.45-1 1-1z" fill="#69d6f4"/></g><g><path d="m50 37v4c0 .55-.45 1-1 1h-5v-6h5c.55 0 1 .45 1 1z" fill="#69d6f4"/></g><g><path d="m10 37v4c0 .55-.45 1-1 1h-3v-6h3c.55 0 1 .45 1 1z" fill="#69d6f4"/></g><g><path d="m20 36v6h-5c-.55 0-1-.45-1-1v-4c0-.55.45-1 1-1z" fill="#69d6f4"/></g><g><path d="m62 28.41v2.59c0 .55-.45 1-1 1h-3-14v-4h6 6 5.9.01c.06.13.09.27.09.41z" fill="#ffc729"/></g><g><path d="m20 28v4h-14-3c-.55 0-1-.45-1-1v-2.59c0-.14.03-.28.09-.41h.01 5.9 6z" fill="#ffc729"/></g><g><path d="m61.71 27.71-5.42-5.42c-.18-.18-.44-.29-.7-.29h-11.59v6h17.9c-.04-.11-.11-.21-.19-.29z" fill="#fcd770"/></g><g><path d="m8.41 22c-.26 0-.52.11-.7.29l-5.42 5.42c-.08.08-.15.18-.19.29h17.9v-6z" fill="#fcd770"/></g><g><path d="m43.93 16h-23.86c-.05.11-.07.23-.07.35v45.65h24v-45.65c0-.12-.02-.24-.07-.35z" fill="#ecc19c"/></g><g><path d="m39 40h-14c-.552 0-1-.448-1-1v-6c0-.552.448-1 1-1h14c.552 0 1 .448 1 1v6c0 .552-.448 1-1 1z" fill="#69d6f4"/></g><g><path d="m43.93 16h-5c-1.38-2.39-3.97-4-6.93-4s-5.55 1.61-6.93 4h-5c.03-.1.08-.19.14-.27l10.17-12.94c.39-.5.99-.79 1.62-.79s1.23.29 1.62.79l10.17 12.94c.06.08.11.17.14.27z" fill="#d3a06c"/></g><g><path d="m40 47v2c0 .55-.45 1-1 1h-1-6-6-1c-.55 0-1-.45-1-1v-2c0-.55.45-1 1-1h14c.55 0 1 .45 1 1z" fill="#aab2bd"/></g><g><path d="m40 20c0 4.42-3.58 8-8 8s-8-3.58-8-8c0-1.46.39-2.83 1.07-4 1.38-2.39 3.97-4 6.93-4s5.55 1.61 6.93 4c.68 1.17 1.07 2.54 1.07 4z" fill="#69d6f4"/></g><g><path d="m26 50h12v12h-12z" fill="#e6e9ed"/></g><g><path d="m33.41 18.59c.37.36.59.86.59 1.41 0 1.1-.9 2-2 2s-2-.9-2-2c0-.55.22-1.05.59-1.41.36-.37.86-.59 1.41-.59s1.05.22 1.41.59z" fill="#ff826e"/></g></g><g><path d="m28.707 15.293-1.414 1.414 2.008 2.008c-.188.391-.301.823-.301 1.285 0 1.654 1.346 3 3 3s3-1.346 3-3c0-.462-.113-.894-.301-1.285l1.008-1.008-1.414-1.414-1.008 1.008c-.391-.188-.823-.301-1.285-.301s-.894.113-1.285.301zm3.293 3.707c.551 0 1 .448 1 1s-.449 1-1 1-1-.448-1-1 .449-1 1-1z"/><path d="m39 31h-14c-1.103 0-2 .897-2 2v6c0 1.103.897 2 2 2h14c1.103 0 2-.897 2-2v-6c0-1.103-.897-2-2-2zm0 4h-2v-2h2zm-8 2v2h-2v-2zm-2-2v-2h2v2zm4 2h2v2h-2zm0-2v-2h2v2zm-6-2v2h-2v-2zm-2 4h2v2h-2zm12 2v-2h2.001v2z"/><path d="m61 33c1.103 0 2-.897 2-2v-2.586c0-.526-.213-1.042-.586-1.414l-5.414-5.414c-.378-.378-.88-.586-1.414-.586h-10.586v-4.654c0-.447-.152-.886-.428-1.235l-10.168-12.943c-.584-.742-1.46-1.168-2.404-1.168s-1.82.426-2.404 1.168l-10.167 12.941c-.277.351-.429.789-.429 1.237v4.654h-10.586c-.534 0-1.036.208-1.414.586l-5.414 5.414c-.373.372-.586.888-.586 1.414v2.586c0 1.103.897 2 2 2h2v12h-2c-1.103 0-2 .897-2 2v2c0 1.103.897 2 2 2v12h58v-12c1.103 0 2-.897 2-2v-2c0-1.103-.897-2-2-2h-2v-12zm-16-2v-2h16v2zm5.535-4-2.667-4h2.663l3.333 4zm9.051 0h-3.117l-3.333-4h2.451zm-14.121-4 2.667 4h-3.132v-4zm-.465 14h4v4h-4zm10 14v10h-2v-10zm-4 10h-2v-10h2zm-4 0h-2v-10h2zm-22-12v-2h14l.001 2zm6 2v10h-4v-10zm2 0h4v10h-4zm6 0c1.103 0 2-.897 2-2v-2c0-1.103-.897-2-2-2h-14c-1.103 0-2 .897-2 2v2c0 1.103.897 2 2 2v10h-4v-44h2.525c-.334.94-.525 1.947-.525 3 0 4.963 4.038 9 9 9s9-4.037 9-9c0-1.053-.191-2.06-.525-3h2.525v44h-4zm-28 0v10h-2v-10zm2 0h2v10h-2zm4 0h2v10h-2zm2-10h-4v-4h4zm14-26v-1.92c3.059.441 5.479 2.861 5.92 5.92h-1.92v2h1.92c-.441 3.059-2.861 5.479-5.92 5.92v-1.92h-2v1.92c-3.059-.441-5.479-2.861-5.92-5.92h1.92v-2h-1.92c.441-3.059 2.861-5.479 5.92-5.92v1.92zm-1.832-11.596c.404-.514 1.259-.514 1.663 0l9.112 11.596h-2.464c-1.617-2.41-4.365-4-7.478-4s-5.862 1.59-7.478 4h-2.464zm-12.168 23.596h-3.132l2.667-4h.465zm-8.865 0 3.333-4h2.663l-2.667 4zm-1.721-4h2.451l-3.333 4h-3.118zm-5.414 6h16v2h-16zm4 8h2v4h-2zm0 6h2c1.103 0 2-.897 2-2v-4c0-1.103-.897-2-2-2h-2v-2h12v2h-4c-1.103 0-2 .897-2 2v4c0 1.103.897 2 2 2h4v2h-12zm-4 4h16v2h-16zm2 4h2v10h-2zm54 10h-2v-10h2zm2-12h-16v-2h16zm-4-8h-2v-4h2zm0-6h-2c-1.103 0-2 .897-2 2v4c0 1.103.897 2 2 2h2v2h-12v-2h4c1.103 0 2-.897 2-2v-4c0-1.103-.897-2-2-2h-4v-2h12z"/></g></g></svg>