<svg id="Layer_1" enable-background="new 0 0 512 512" height="512" viewBox="0 0 512 512" width="512" xmlns="http://www.w3.org/2000/svg"><g><path d="m427.134 512h-342.268c-6.83 0-12.366-5.537-12.366-12.366v-456.362c0-6.83 5.537-12.366 12.366-12.366h342.267c6.83 0 12.366 5.537 12.366 12.366v456.362c.001 6.829-5.536 12.366-12.365 12.366z" fill="#e3954b"/><path d="m408.573 30.905v481.095h18.556c6.832 0 12.371-5.535 12.371-12.362v-456.37c0-6.827-5.539-12.362-12.371-12.362h-18.556z" fill="#cf7c38"/><path d="m103.427 477.095v-411.284c0-2.209 1.791-4 4-4h297.146c2.209 0 4 1.791 4 4v411.284c0 2.209-1.791 4-4 4h-297.146c-2.209 0-4-1.791-4-4z" fill="#f3f3f3"/><path d="m357.988 30.905h-203.976c-3.414 0-6.181-2.767-6.181-6.181v-18.543c0-3.414 2.767-6.181 6.181-6.181h203.976c3.414 0 6.181 2.767 6.181 6.181v18.543c0 3.414-2.767 6.181-6.181 6.181z" fill="#5297ba"/><path d="m357.988 0h-30.905c3.414 0 6.181 2.767 6.181 6.181v18.543c0 3.414-2.767 6.181-6.181 6.181h30.905c3.414 0 6.181-2.767 6.181-6.181v-18.543c0-3.414-2.767-6.181-6.181-6.181z" fill="#4380a0"/><path d="m335.324 23.405c-4.143 0-7.5 3.358-7.5 7.5v40.448c0 4.236-3.446 7.682-7.683 7.682h-128.283c-4.236 0-7.683-3.446-7.683-7.682v-40.448c0-4.142-3.357-7.5-7.5-7.5s-7.5 3.358-7.5 7.5v40.448c0 12.507 10.176 22.682 22.683 22.682h128.283c12.507 0 22.683-10.175 22.683-22.682v-40.448c0-4.142-3.357-7.5-7.5-7.5z" fill="#3b7191"/><path d="m254.343 193.657c0 11.379-9.225 20.604-20.604 20.604h-11.332c-2.276 0-4.121 1.845-4.121 4.121v11.332c0 11.379-9.225 20.604-20.604 20.604-11.379 0-20.604-9.225-20.604-20.604v-11.332c0-2.276-1.845-4.121-4.121-4.121h-11.332c-11.379 0-20.604-9.225-20.604-20.604 0-11.379 9.225-20.604 20.604-20.604h11.332c2.276 0 4.121-1.845 4.121-4.121v-11.332c0-11.379 9.225-20.604 20.604-20.604 11.379 0 20.604 9.225 20.604 20.604v11.332c0 2.276 1.845 4.121 4.121 4.121h11.332c11.379 0 20.604 9.225 20.604 20.604z" fill="#29cef6"/><g fill="#ffd54f"><path d="m290.48 158.494h71.553c4.143 0 7.5-3.358 7.5-7.5s-3.357-7.5-7.5-7.5h-71.553c-4.143 0-7.5 3.358-7.5 7.5s3.358 7.5 7.5 7.5z"/><path d="m362.033 174.399h-71.553c-4.143 0-7.5 3.358-7.5 7.5s3.357 7.5 7.5 7.5h71.553c4.143 0 7.5-3.358 7.5-7.5s-3.357-7.5-7.5-7.5z"/><path d="m362.033 205.304h-71.553c-4.143 0-7.5 3.358-7.5 7.5s3.357 7.5 7.5 7.5h71.553c4.143 0 7.5-3.358 7.5-7.5s-3.357-7.5-7.5-7.5z"/><path d="m333.267 236.21h-42.787c-4.143 0-7.5 3.358-7.5 7.5s3.357 7.5 7.5 7.5h42.786c4.143 0 7.5-3.358 7.5-7.5s-3.357-7.5-7.499-7.5z"/></g><g fill="#f75632"><path d="m146.952 316.673h218.096c4.143 0 7.5-3.358 7.5-7.5s-3.357-7.5-7.5-7.5h-218.096c-4.143 0-7.5 3.358-7.5 7.5s3.358 7.5 7.5 7.5z"/><path d="m365.048 332.578h-218.096c-4.143 0-7.5 3.358-7.5 7.5s3.357 7.5 7.5 7.5h218.096c4.143 0 7.5-3.358 7.5-7.5s-3.358-7.5-7.5-7.5z"/><path d="m365.048 363.483h-218.096c-4.143 0-7.5 3.358-7.5 7.5s3.357 7.5 7.5 7.5h218.096c4.143 0 7.5-3.358 7.5-7.5s-3.358-7.5-7.5-7.5z"/><path d="m277.365 394.389h-130.413c-4.143 0-7.5 3.358-7.5 7.5s3.357 7.5 7.5 7.5h130.413c4.143 0 7.5-3.358 7.5-7.5s-3.357-7.5-7.5-7.5z"/></g></g></svg>